# xmcd
#
# Track frame offsets:
#	150
#	17377
#	33588
#	49326
#	72906
#	91414
#	110918
#	129524
#	150552
#	177389
#	190485
#	206458
#	221723
#	250054
#	269079
#
# Disc length: 3931 seconds
#
# Revision: 1
# Processed by: cddbd v1.4PL0 Copyright (c) Steve Scherf et al.
# Submitted via: audiograbber 1.80
#
DISCID=e10f590f
DTITLE=Nande and The Big Difference - Nande and The Big Difference
DYEAR=1900
DGENRE=
TTITLE0=One bad stud
TTITLE1=i can't stop it
TTITLE2=what's wrong
TTITLE3=why
TTITLE4=swing mashine
TTITLE5=good understanding
TTITLE6=don't count your chickens
TTITLE7=she's a good 'un
TTITLE8=taste of my own medicine
TTITLE9=okie dokie stomp
TTITLE10=duckin' divin'
TTITLE11=don't try
TTITLE12=kansas city
TTITLE13=kiss your feet
TTITLE14=good rockin' tonight
EXTD=
EXTT0=
EXTT1=
EXTT2=
EXTT3=
EXTT4=
EXTT5=
EXTT6=
EXTT7=
EXTT8=
EXTT9=
EXTT10=
EXTT11=
EXTT12=
EXTT13=
EXTT14=
PLAYORDER=
